<?xml version="1.0" encoding="UTF-8"?>
<svg id="Layer_1" data-name="Layer 1" xmlns="http://www.w3.org/2000/svg" viewBox="0 0 100 100">
  <defs>
    <style>
      .cls-1, .cls-2, .cls-3, .cls-4, .cls-5, .cls-6, .cls-7 {
        stroke: #000;
      }

      .cls-1, .cls-2, .cls-4, .cls-5, .cls-6, .cls-7 {
        stroke-width: 3.19px;
      }

      .cls-1, .cls-4, .cls-5 {
        stroke-linecap: round;
        stroke-linejoin: round;
      }

      .cls-1, .cls-7 {
        fill: none;
      }

      .cls-2, .cls-3, .cls-4 {
        fill: #fff;
      }

      .cls-2, .cls-3, .cls-6, .cls-7 {
        stroke-miterlimit: 10;
      }

      .cls-3 {
        stroke-width: 2.58px;
      }

      .cls-5, .cls-6, .cls-8 {
        fill: #f9e310;
      }
    </style>
  </defs>
  <path class="cls-8" d="M66.85,69.05s28.22,5.08,29.72,22.15H3.43s1.38-19.63,33.11-21.86"/>
  <path class="cls-1" d="M3.43,91.19s1.38-19.63,33.11-21.86"/>
  <path class="cls-3" d="M67.25,33.39c2.27-.25,13.31.16-.4,12.54"/>
  <path class="cls-3" d="M33.57,33.39c-2.27-.25-13.31.16.4,12.54"/>
  <path class="cls-4" d="M62.01,55.23s-2.73,12.3,4.84,13.82l-16.52,15.82-15.32-15.41s6.74-2.17,3.01-14.73"/>
  <path class="cls-2" d="M32.95,25.36v20.35c0,3.16,1.44,6.14,3.91,8.1l8.65,6.87c2.82,2.24,6.81,2.24,9.63,0l8.65-6.87c2.47-1.96,3.91-4.95,3.91-8.1v-20.35h-34.76Z"/>
  <circle class="cls-3" cx="55.89" cy="38.94" r=".7"/>
  <circle class="cls-3" cx="44.45" cy="38.94" r=".7"/>
  <path class="cls-5" d="M32.95,26.95s-27.45,29.43,34.76.78"/>
  <path class="cls-4" d="M45.72,49.08c4.38,3.87,9.22,0,9.22,0"/>
  <path class="cls-1" d="M66.85,69.05s28.22,5.08,29.72,22.15"/>
  <path class="cls-6" d="M67.71,27.73v-7.4c0-4.23-4.57-8.8-10.21-8.8h-14.34c-5.64,0-10.21,4.57-10.21,10.21v5.99"/>
  <path class="cls-7" d="M32.49,26.6c7.88,5.08,35.22,0,35.22,0"/>
</svg>